<?xml version="1.0" encoding="UTF-8"?>
<svg width="28px" height="28px" viewBox="0 0 28 28" version="1.1" xmlns="http://www.w3.org/2000/svg" xmlns:xlink="http://www.w3.org/1999/xlink">
    <!-- Generator: Sketch 49.3 (51167) - http://www.bohemiancoding.com/sketch -->
    <title>Group 3</title>
    <desc>Created with Sketch.</desc>
    <defs></defs>
    <g id="Page-1" stroke="none" stroke-width="1" fill="none" fill-rule="evenodd">
        <g id="slide-6" transform="translate(-763.000000, -452.000000)">
            <g id="Group-3" transform="translate(763.000000, 452.000000)">
                <rect id="Rectangle-2" fill="#00B2FF" x="0" y="0" width="28" height="28" rx="4"></rect>
                <g id="code" transform="translate(5.600000, 7.466667)" fill="#FFFFFF" fill-rule="nonzero">
                    <path d="M10.831103,0.183299067 L10.2424047,0.0219107718 C10.1666314,-0.00335810008 10.0919885,0.00458829517 10.019407,0.0456834606 C9.94659271,0.0868118745 9.89741815,0.148554368 9.87214928,0.230811196 L6.33138185,12.4858151 C6.30611298,12.5681052 6.31402612,12.6457072 6.35515454,12.7183885 C6.39628295,12.7912027 6.45789245,12.8402443 6.54028227,12.8655131 L7.12881425,13.0269679 C7.20475386,13.0524363 7.27913079,13.0444567 7.35191179,13.003295 C7.42472604,12.9619671 7.47380085,12.9004241 7.49903647,12.8183003 L11.0399036,0.563096862 C11.0651393,0.480840034 11.0572926,0.403237998 11.0160977,0.3303905 C10.974936,0.257576251 10.913393,0.20853469 10.831103,0.183299067 Z" id="Shape"></path>
                    <path d="M5.52480611,2.57559627 C5.52480611,2.49333944 5.49312027,2.42049194 5.42984835,2.35725327 L4.95515929,1.88259746 C4.89188736,1.81932553 4.81907311,1.78760645 4.73681628,1.78760645 C4.65455946,1.78760645 4.58171196,1.81935878 4.51847328,1.88259746 L0.0949577608,6.30611298 C0.0315860899,6.3693849 0,6.44219915 0,6.52445598 C0,6.60671281 0.0316858355,6.67952706 0.0949577608,6.74276573 L4.51844003,11.1662813 C4.58167871,11.2296529 4.65439321,11.2611725 4.73678304,11.2611725 C4.81917286,11.2611725 4.89188736,11.2295532 4.95512604,11.1662813 L5.4298151,10.6918914 C5.49308702,10.6286528 5.52477286,10.5558053 5.52477286,10.4734487 C5.52477286,10.3912916 5.49308702,10.3184774 5.4298151,10.2552387 L1.69923189,6.52445598 L5.42984835,2.79393927 C5.49322002,2.73070059 5.52480611,2.6578531 5.52480611,2.57559627 Z" id="Shape"></path>
                    <path d="M17.2763942,6.30601323 L12.852779,1.88249771 C12.7895403,1.81925903 12.7166928,1.7875067 12.634569,1.7875067 C12.5521791,1.7875067 12.4795976,1.81925903 12.4161262,1.88249771 L11.9416366,2.35712027 C11.878398,2.4203922 11.8468451,2.4931067 11.8468451,2.57546327 C11.8468451,2.65781985 11.8783647,2.7305676 11.9416366,2.79380628 L15.6723196,6.52442273 L11.9416366,10.2552387 C11.878398,10.3184774 11.8468451,10.3913249 11.8468451,10.4734487 C11.8468451,10.5558385 11.8783647,10.6286528 11.9416366,10.6918914 L12.4161262,11.1662813 C12.4795976,11.2296529 12.5522124,11.2611725 12.634569,11.2611725 C12.716726,11.2611725 12.7895403,11.2295532 12.852779,11.1662813 L17.2763942,6.74279898 C17.3396662,6.67956031 17.3712855,6.60661306 17.3712855,6.52435623 C17.3712855,6.44206616 17.3396662,6.36925191 17.2763942,6.30601323 Z" id="Shape"></path>
                </g>
            </g>
        </g>
    </g>
</svg>