<?xml version="1.0" encoding="UTF-8"?>
<svg width="28px" height="28px" viewBox="0 0 28 28" version="1.1" xmlns="http://www.w3.org/2000/svg" xmlns:xlink="http://www.w3.org/1999/xlink">
    <!-- Generator: Sketch 49.3 (51167) - http://www.bohemiancoding.com/sketch -->
    <title>facebook (1)</title>
    <desc>Created with Sketch.</desc>
    <defs></defs>
    <g id="Page-1" stroke="none" stroke-width="1" fill="none" fill-rule="evenodd">
        <g id="slide-6" transform="translate(-621.000000, -452.000000)" fill="#475993" fill-rule="nonzero">
            <g id="facebook-(1)" transform="translate(621.000000, 452.000000)">
                <path d="M24.2142494,0 L3.77123716,0 C1.68855746,0 0.000136919315,1.68835208 0.000136919315,3.77110024 L0.000136919315,24.2142494 C0.000136919315,26.2969976 1.688489,27.9853496 3.77123716,27.9853496 L13.8536333,27.9853496 L13.8708166,17.9848998 L11.2727042,17.9848998 C10.9350611,17.9848998 10.6610171,17.7118826 10.6597164,17.3742396 L10.6472567,14.1506797 C10.645956,13.8111883 10.9208215,13.5352958 11.260313,13.5352958 L13.8537017,13.5352958 L13.8537017,10.4205183 C13.8537017,6.80584841 16.0613203,4.83763325 19.2858386,4.83763325 L21.9318044,4.83763325 C22.2703374,4.83763325 22.5448606,5.11208802 22.5448606,5.45068949 L22.5448606,8.16881174 C22.5448606,8.50727628 22.2705428,8.78166259 21.9321467,8.78186797 L20.3083521,8.78262103 C18.5547579,8.78262103 18.215198,9.61591198 18.215198,10.8388068 L18.215198,13.5353643 L22.0684499,13.5353643 C22.435599,13.5353643 22.7204597,13.8559609 22.6771932,14.220577 L22.2951198,17.4441369 C22.2585623,17.7526161 21.996978,17.9850367 21.6863765,17.9850367 L18.2323814,17.9850367 L18.215198,27.9854866 L24.2143863,27.9854866 C26.297066,27.9854866 27.9854181,26.2971345 27.9854181,24.2144548 L27.9854181,3.77110024 C27.9853496,1.68835208 26.2969976,0 24.2142494,0 Z" id="Shape"></path>
            </g>
        </g>
    </g>
</svg>