<?xml version="1.0" encoding="UTF-8"?>
<svg width="238px" height="149px" viewBox="0 0 238 149" version="1.1" xmlns="http://www.w3.org/2000/svg" xmlns:xlink="http://www.w3.org/1999/xlink">
    <!-- Generator: Sketch 49.3 (51167) - http://www.bohemiancoding.com/sketch -->
    <title>finimize-logo-2018_Full Logo Blue</title>
    <desc>Created with Sketch.</desc>
    <defs></defs>
    <g id="Page-1" stroke="none" stroke-width="1" fill="none" fill-rule="evenodd">
        <g id="finimize-logo-2018_Full-Logo-Blue">
            <path d="M143.550315,100.281 C143.493291,97.368 144.663783,94.44 146.851702,92.037 C148.40008,90.3176292 150.343798,89.0007396 152.515082,88.2 C153.115334,87.993 153.754603,87.798 154.420883,87.621 C156.014182,87.2035064 157.630645,86.8799489 159.261917,86.652 C166.792081,73.554 176.201034,61.242 197.870139,52.485 C203.218386,50.325 203.68058,42.945 198.614451,40.185 L143.877453,10.377 C136.718868,6.47761513 128.188603,5.99100531 120.632686,9.051 C70.4996217,29.4 92.8680202,71.943 22.7345523,96.723 C17.1852207,98.685 16.5879697,106.299 21.7591425,109.11 L79.9836066,140.745 C86.2287877,144.156461 93.6191505,144.793106 100.356166,142.5 C126.206028,133.623 138.388146,121.383 146.875712,108.435 C144.791219,106.225042 143.605587,103.317828 143.550315,100.281 Z" id="Shape" stroke="#00B2FF" stroke-width="8.4" fill="#FFFFFF" fill-rule="nonzero"></path>
            <path d="M4.55591425,0.096 L1.82176545,7.518 C1.40459016,8.655 -2.13089533,18.918 2.59008827,28.56 C3.96924979,31.3736248 5.92907877,33.8632795 8.34050441,35.865 C9.67820914,36.9761431 11.1263906,37.9472233 12.6623203,38.763 C12.6623203,38.826 12.6623203,38.886 12.6623203,38.949 C12.72669,43.9850881 15.0381077,48.7292049 18.9649685,51.885 C23.302681,55.5498374 28.9733408,57.239556 34.6105422,56.547 C35.221068,57.2828533 35.8797926,57.9773804 36.5823707,58.626 C39.8837579,61.68 45.634174,65.112 54.3318285,64.119 C55.2274583,64.0183459 56.1143031,63.8508789 56.9849433,63.618 C59.5721233,62.9253726 61.966286,61.6497749 63.983884,59.889 C68.2255712,64.7927546 75.5367567,65.5875987 80.7339218,61.71 C83.0749054,59.967 84.6745776,57.249 85.2358134,54.057 C85.6529643,51.7831302 85.5055962,49.4416819 84.806633,47.238 C82.9458512,41.802 78.3959395,34.773 72.6365195,28.437 C68.8009079,24.213 61.0366456,16.659 52.1409079,13.506 C45.1959899,11.043 38.9053468,10.383 32.8217907,9.744 C25.1715763,8.943 18.5658008,8.244 11.3927869,4.074 L4.55591425,0.096 Z" id="Shape" fill="#00B2FF"></path>
            <path d="M145.897301,108.093 C143.514158,105.834656 142.138614,102.713958 142.079697,99.432 C142.022673,96.519 143.193165,93.591 145.381084,91.188 C146.928625,89.4627673 148.873557,88.1406045 151.047465,87.336 C151.647718,87.129 152.286986,86.934 152.956267,86.757 C155.241372,86.1690993 157.568143,85.7568953 159.916192,85.524 C160.894603,83.862 161.906028,82.224 162.977478,80.586 L87.4717528,37.014 C80.6919042,47.736 75.6677932,59.445 65.5835561,70.479 L142.337806,114.777 C143.89546,112.794 145.318058,110.781 146.653619,108.753 C146.395511,108.543 146.140404,108.324 145.897301,108.093 Z" id="Shape" fill="#00B2FF"></path>
            <path d="M152.953266,86.757 C152.283985,86.934 151.644716,87.129 151.044464,87.336 C148.869318,88.1440385 146.924272,89.4703979 145.378083,91.2 C143.193165,93.6 142.022673,96.531 142.076696,99.444 C142.211103,105.91593 147.33412,111.17966 153.802623,111.492 C153.591154,115.077409 154.494853,118.640382 156.38971,121.692 C160.828575,128.946 166.894124,131.409 171.185927,132.192 C172.28406,132.392379 173.395602,132.510706 174.511324,132.546 C174.703405,132.864 174.910492,133.191 175.135586,133.518 C178.106835,137.874 182.494678,140.802 187.821917,141.99 C190.557826,142.623929 193.406979,142.582744 196.123405,141.87 C198.293049,141.284741 200.325067,140.275276 202.101917,138.9 C208.404565,141.669 213.839849,141.276 217.582421,140.274 C227.402547,137.643 232.93087,129.189 233.528121,128.235 L237.729887,121.524 L230.373796,118.59 C222.657554,115.512 218.044615,110.739 212.708373,105.213 C208.461589,100.818 204.073745,96.276 197.852131,92.313 C193.878462,89.79 186.642421,86.553 174.742421,85.47 C166.81309,84.747 158.670668,85.23 152.96227,86.76" id="Shape" fill="#00B2FF"></path>
            <path d="M154.666986,93.15 C164.232005,90.588 183.779218,91.221 194.283632,97.896 C207.46517,106.269 212.276192,118.488 227.897755,124.722 C227.897755,124.722 223.443884,131.838 215.871702,133.866 C211.72396,134.976 206.642825,134.562 200.844388,130.617 C200.844388,130.617 198.719496,134.316 194.415687,135.468 C192.736042,135.90447 190.975002,135.92301 189.286532,135.522 C184.143047,134.470875 180.036816,130.602208 178.683077,125.532 L178.650063,125.532 C178.025801,125.7 168.145649,128.16 162.068096,118.212 C157.884338,111.372 163.040504,104.586 163.040504,104.586 C163.040504,104.586 155.678411,104.835 154.567945,104.862 C153.054424,104.900664 151.587651,104.336101 150.490947,103.292757 C149.394244,102.249413 148.757649,100.812947 148.721488,99.3 C148.667465,96.537 151.488651,94.2 153.202371,93.6 C153.658562,93.444 154.147768,93.3 154.666986,93.156" id="Shape" fill="#FFFFFF"></path>
            <path d="M8.04938209,9.798 C22.5724842,18.249 35.1987894,14.526 49.9169735,19.746 C62.282169,24.129 75.4997226,40.524 78.5339975,49.386 C79.1192434,51.096 78.9961917,54.75 76.7752585,56.403 C76.1936406,56.834805 75.5359239,57.1533481 74.8364439,57.342 C72.5749919,57.9539737 70.1691884,57.1210421 68.7708953,55.242 C68.1106179,54.342 63.7978058,48.426 63.788802,48.411 C63.7797982,48.396 61.8980076,55.455 55.2862295,57.225 C54.7320614,57.3744924 54.1671318,57.480811 53.5965195,57.543 C41.609483,58.914 37.6148045,48.978 37.6148045,48.978 C37.0497005,49.227399 36.4643307,49.4281275 35.8650694,49.578 C33.2689786,50.274 28.157831,50.838 23.1997478,46.764 C17.0771753,41.733 19.9883985,34.671 19.9883985,34.671 C1.11046658,28.647 8.04938209,9.798 8.04938209,9.798 Z" id="Shape" fill="#FFFFFF"></path>
        </g>
    </g>
</svg>