<?xml version="1.0" encoding="UTF-8"?>
<svg width="28px" height="28px" viewBox="0 0 28 28" version="1.1" xmlns="http://www.w3.org/2000/svg" xmlns:xlink="http://www.w3.org/1999/xlink">
    <!-- Generator: Sketch 49.3 (51167) - http://www.bohemiancoding.com/sketch -->
    <title>broken-link</title>
    <desc>Created with Sketch.</desc>
    <defs></defs>
    <g id="Page-1" stroke="none" stroke-width="1" fill="none" fill-rule="evenodd">
        <g id="slide-6" transform="translate(-728.000000, -452.000000)">
            <g id="broken-link" transform="translate(728.000000, 452.000000)">
                <rect id="Rectangle-2" fill="#4ACFD9" x="0" y="0" width="28" height="28" rx="4"></rect>
                <g id="Group" transform="translate(6.000000, 6.000000)" fill="#FFFFFF" fill-rule="nonzero">
                    <path d="M7.9180625,3.68328125 L5.1104375,0.8756875 C4.5456875,0.311 3.79375,0 2.99309375,0 C2.1924375,0 1.44046875,0.311 0.8756875,0.87571875 C-0.2918125,2.04325 -0.2918125,3.9429375 0.8756875,5.1105 L3.68328125,7.9180625 C4.24803125,8.48278125 5.00003125,8.7938125 5.8006875,8.7938125 C6.60134375,8.7938125 7.35334375,8.48278125 7.9180625,7.9180625 C8.48278125,7.3533125 8.7938125,6.60134375 8.7938125,5.8006875 C8.79384375,5.00003125 8.4828125,4.2480625 7.9180625,3.68328125 Z M4.05759375,1.92859375 L6.86521875,4.73615625 C7.4521875,5.32315625 7.4521875,6.27825 6.86525,6.86525 C6.2781875,7.4521875 5.32303125,7.4521875 4.736125,6.86525 L3.3323125,5.46146875 L3.3323125,5.4615 L1.92853125,4.0576875 C1.3415625,3.4706875 1.3415625,2.51559375 1.92853125,1.92859375 C2.51553125,1.34159375 3.470625,1.34159375 4.05759375,1.92859375 Z" id="Shape"></path>
                    <path d="M15.1241875,10.8894375 L12.3165937,8.0818125 C11.7518437,7.51709375 10.999875,7.20609375 10.1992188,7.20609375 C9.3985625,7.20609375 8.6465625,7.51709375 8.08184375,8.0818125 C7.51709375,8.6465625 7.2060625,9.39853125 7.2060625,10.1991875 C7.2060625,10.999875 7.5170625,11.751875 8.08184375,12.3165938 L10.8894063,15.1241875 C11.4541563,15.6889063 12.206125,15.9999688 13.0067812,15.9999688 C13.8074375,15.9999688 14.5594375,15.6889375 15.1241563,15.1241875 C15.688875,14.5594375 15.9999375,13.8074688 15.9999375,13.0068125 C15.9999375,12.2061563 15.6889375,11.4542188 15.1241875,10.8894375 Z M11.9422813,14.0713438 L10.5384687,12.6675625 L9.1346875,11.26375 C8.5476875,10.6767812 8.5476875,9.72165625 9.1346875,9.13465625 C9.72165625,8.5476875 10.67675,8.5476875 11.26375,9.13465625 L14.0713437,11.94225 C14.6583125,12.52925 14.6583125,13.4843437 14.0713437,14.0713438 C13.4843437,14.658375 12.5292812,14.658375 11.9422813,14.0713438 Z" id="Shape"></path>
                </g>
                <path d="M17.2871562,16.234375 L11.297625,10.2448125 C11.0073125,9.95453125 10.5350625,9.95453125 10.2448125,10.2448125 C10.1041875,10.3854062 10.0267187,10.5723437 10.0267187,10.77125 C10.0267187,10.970125 10.1041875,11.1570937 10.2447812,11.2976875 L16.2343125,17.2871875 C16.3749375,17.4277812 16.561875,17.50525 16.76075,17.50525 C16.9595937,17.50525 17.1465625,17.4277812 17.2871562,17.2871875 C17.4277812,17.1465937 17.50525,16.9596562 17.50525,16.76075 C17.5052187,16.5619062 17.42775,16.3749687 17.2871562,16.234375 Z" id="Shape" fill="#0295AA" fill-rule="nonzero"></path>
            </g>
        </g>
    </g>
</svg>