<?xml version="1.0" encoding="UTF-8"?>
<svg width="28px" height="28px" viewBox="0 0 28 28" version="1.1" xmlns="http://www.w3.org/2000/svg" xmlns:xlink="http://www.w3.org/1999/xlink">
    <!-- Generator: Sketch 49.3 (51167) - http://www.bohemiancoding.com/sketch -->
    <title>Group 5</title>
    <desc>Created with Sketch.</desc>
    <defs></defs>
    <g id="Page-1" stroke="none" stroke-width="1" fill="none" fill-rule="evenodd">
        <g id="slide-6" transform="translate(-693.000000, -452.000000)">
            <g id="Group-5" transform="translate(693.000000, 452.000000)">
                <rect id="Rectangle-2" fill="#76A9EA" x="0" y="0" width="28" height="28" rx="4"></rect>
                <g id="twitter" transform="translate(6.000000, 7.000000)" fill="#FFFFFF" fill-rule="nonzero">
                    <path d="M16.5229474,1.64479532 C16.1499006,1.81021637 15.7626491,1.9407193 15.3652865,2.03519883 C15.8031345,1.61912865 16.1323392,1.09871345 16.3180643,0.517836257 C16.371076,0.352005848 16.1909591,0.208608187 16.0412164,0.297397661 C15.4884211,0.625292398 14.8929708,0.871274854 14.2713626,1.02859064 C14.2352982,1.0377193 14.1980877,1.04234503 14.1607544,1.04234503 C14.0475263,1.04234503 13.9374503,1.00030409 13.8508713,0.924 C13.1895146,0.341116959 12.3389123,0.0200994152 11.455807,0.0200994152 C11.0736725,0.0200994152 10.6878538,0.0796608187 10.3090351,0.197146199 C9.13532749,0.561187135 8.2297076,1.52935673 7.9455731,2.72385965 C7.83897661,3.17190058 7.81011696,3.62035088 7.85973099,4.05672515 C7.86542105,4.10687135 7.8417193,4.14187135 7.82710526,4.15828655 C7.8014386,4.18706433 7.76504678,4.2035614 7.72726316,4.2035614 C7.72304678,4.2035614 7.7187076,4.20335673 7.71440936,4.20294737 C5.14520468,3.96425146 2.82840936,2.72647953 1.19077778,0.717684211 C1.10726901,0.615222222 0.947128655,0.627789474 0.880567251,0.741959064 C0.559877193,1.2921345 0.390403509,1.92139766 0.390403509,2.56171345 C0.390403509,3.54302339 0.784654971,4.46780117 1.46946784,5.14197076 C1.18148538,5.07369006 0.902754386,4.96615205 0.643836257,4.82234503 C0.518573099,4.75275439 0.364450292,4.84219883 0.362690058,4.98547368 C0.344760234,6.44327485 1.19826901,7.74044444 2.4768538,8.32455556 C2.45110526,8.32516959 2.42535673,8.32545614 2.39956725,8.32545614 C2.19689474,8.32545614 1.99168421,8.30588889 1.7897076,8.26728655 C1.64864327,8.24035088 1.5301345,8.37416959 1.57393567,8.51093567 C1.98894152,9.80659064 3.10452047,10.7616199 4.43951462,10.9784561 C3.33154971,11.7222164 2.04129825,12.1145439 0.698403509,12.1145439 L0.279754386,12.1142982 C0.150766082,12.1142982 0.0416725146,12.1983801 0.00880116959,12.3233158 C-0.0235789474,12.4463684 0.0360643275,12.5761754 0.14605848,12.6401579 C1.65928655,13.520807 3.38533918,13.9862456 5.13836842,13.9862456 C6.67284211,13.9862456 8.10821053,13.6817251 9.40464327,13.0811988 C10.5931287,12.530655 11.6433743,11.7436667 12.526193,10.7420936 C13.3485906,9.80908772 13.9916901,8.73202924 14.4375614,7.54088304 C14.8625965,6.40545029 15.0872515,5.19391813 15.0872515,4.03723977 L15.0872515,3.98214035 C15.0872105,3.7964152 15.1712105,3.62166082 15.3177602,3.50270175 C15.8738713,3.05118129 16.3581404,2.51967251 16.7570585,1.92295322 C16.862386,1.76539181 16.696269,1.56791813 16.5229474,1.64479532 Z" id="Shape"></path>
                </g>
            </g>
        </g>
    </g>
</svg>